<svg id="Layer_1" enable-background="new 0 0 480 480" height="512" viewBox="0 0 480 480" width="512" xmlns="http://www.w3.org/2000/svg"><path d="m472 54.999v288c0 13.25-10.75 24-24 24h-180v66.94c-18.298-1.222-37-1.281-56-.01v-66.93h-180c-13.25 0-24-10.75-24-24v-288c0-13.25 10.75-24 24-24h416c13.25 0 24 10.75 24 24z" fill="#d1e7ff"/><path d="m268 366.999v66.94c-18.252-1.219-36.953-1.284-56-.01v-66.93z" fill="#d1e7ff"/><path d="m448 30.999c13.255 0 24 10.745 24 24 0 15.397-13.46 27.289-28.749 25.469-180.612-21.499-344.768 77.817-380.309 265.636-2.29 12.101-12.806 20.895-25.121 20.895h-5.821c-13.255 0-24-10.745-24-24v-288c0-13.255 10.745-24 24-24h416z" fill="#e8f3ff"/><path d="m212 366.999h56v25h-56z" fill="#b9dcff"/><path d="m307.39 306.739h-138.6c-4.31 0-8.392-1.62-11.2-4.03-.02 0-.03-.01-.04-.03-4.864-4.103-6.871-10.055-6.24-15.42 0-.015 12.418-114.105 12.42-114.12.939-8.71 8.316-15.57 17.36-15.57 125.21 0 117.548-.059 119.02.12 2.141 0 9.121 1.807 13.05 8.51 2.643 4.542 1.612.688 14.39 118.07 1.31 11.99-8.09 22.47-20.16 22.47z" fill="#b9dcff"/><path d="m297.95 192.459c-55.52 0-102.15 41.79-108.19 96.99-1.878 17.235-22.542 21.522-32.17 13.26-.02 0-.03-.01-.04-.03-1.832-1.494-3.559-3.628-4.71-6.13-2.171-4.694-1.53-8.299-1.53-9.3l12.43-114.12c.966-8.878 8.462-15.56 17.35-15.56 124.752 0 119.06.12 119.06.12 5.52.64 10.29 3.87 13.01 8.51 6.798 11.684-2.474 26.26-15.21 26.26z" fill="#d1e7ff"/><path d="m448 22.999h-416c-17.645 0-32 14.355-32 32v288c0 17.645 14.355 32 32 32h172v31c0 4.418 3.582 8 8 8s8-3.582 8-8v-29h40v29c0 4.418 3.582 8 8 8s8-3.582 8-8v-31h172c17.645 0 32-14.355 32-32v-288c0-17.644-14.355-32-32-32zm16 320c0 8.822-7.178 16-16 16h-416c-8.822 0-16-7.178-16-16v-288c0-8.822 7.178-16 16-16h416c8.822 0 16 7.178 16 16zm-104.361 108.377c-1.31 4.211-5.787 6.576-10.016 5.262-67.24-20.92-152.438-20.783-219.246 0-4.219 1.311-8.703-1.043-10.016-5.262-1.313-4.22 1.043-8.703 5.262-10.016 69.922-21.753 158.439-21.876 228.754 0 4.219 1.313 6.574 5.797 5.262 10.016zm-36.232-279.114c-1.409-12.935-12.282-22.688-25.293-22.688h-9.916v-18.525c0-26.798-21.802-48.6-48.6-48.6s-48.598 21.801-48.598 48.599v18.525h-9.916c-13.011 0-23.884 9.754-25.293 22.688l-12.441 114.28c-1.638 15.046 10.167 28.197 25.293 28.197h141.913c15.135 0 26.93-13.16 25.293-28.197zm-12.851 126.476h-141.913c-5.632 0-9.997-4.873-9.387-10.465l12.441-114.279c.522-4.801 4.559-8.421 9.387-8.421h9.916v15.818c0 4.418 3.582 8 8 8s8-3.582 8-8v-50.344c0-17.976 14.624-32.6 32.599-32.6 17.976 0 32.6 14.624 32.6 32.6v18.525h-41.541c-4.418 0-8 3.582-8 8s3.582 8 8 8h41.541v15.818c0 4.418 3.582 8 8 8s8-3.582 8-8v-15.818h9.916c4.828 0 8.864 3.62 9.387 8.421l12.441 114.279c.61 5.598-3.762 10.466-9.387 10.466z" fill="#2e58ff"/></svg>