<?xml version="1.0" standalone="no"?>
<!DOCTYPE svg PUBLIC "-//W3C//DTD SVG 20010904//EN"
 "http://www.w3.org/TR/2001/REC-SVG-20010904/DTD/svg10.dtd">
<svg version="1.0" xmlns="http://www.w3.org/2000/svg"
 width="947.000000pt" height="842.000000pt" viewBox="0 0 947.000000 842.000000"
 preserveAspectRatio="xMidYMid meet">
<metadata>
Created by potrace 1.16, written by Peter Selinger 2001-2019
</metadata>
<g transform="translate(0.000000,842.000000) scale(0.100000,-0.100000)"
fill="#000000" stroke="none">
<path d="M4317 7513 c-2 -5 -26 -97 -53 -205 -46 -186 -50 -198 -74 -203 -14
-3 -281 -48 -595 -100 -313 -52 -580 -98 -592 -100 -22 -5 -23 -10 -23 -98 0
-164 33 -382 86 -570 13 -48 22 -92 19 -97 -4 -6 -1 -10 4 -10 6 0 11 -6 11
-14 0 -21 66 -70 162 -121 217 -115 484 -160 714 -120 48 9 95 13 103 10 8 -3
12 -3 8 1 -4 4 30 19 76 34 146 47 294 132 403 231 l54 49 78 -65 c365 -308
886 -361 1302 -132 127 70 134 78 168 190 53 177 82 355 97 604 l6 101 -28 6
c-15 4 -293 51 -617 105 -323 54 -591 103 -595 109 -3 5 -28 98 -55 206 l-48
196 -304 0 c-166 0 -305 -3 -307 -7z"/>
<path d="M4514 5609 c-122 -66 -224 -102 -399 -139 -33 -7 -76 -16 -95 -21
-60 -15 -356 -10 -455 7 -140 25 -155 27 -155 18 1 -26 180 -257 292 -377 32
-34 65 -81 74 -105 26 -66 10 -101 -100 -225 -199 -223 -335 -457 -431 -742
-44 -131 -84 -345 -91 -492 l-7 -133 636 0 637 0 0 -410 0 -410 200 0 200 0 2
408 3 407 639 3 638 2 -6 63 c-4 34 -9 92 -11 129 -4 61 -19 153 -45 282 -5
26 -28 103 -50 169 -94 280 -245 535 -435 737 -71 75 -95 115 -95 161 0 47 34
111 83 156 23 21 49 48 57 60 8 11 49 63 91 114 90 112 150 199 143 210 -2 4
-19 3 -37 -2 -80 -23 -228 -39 -359 -39 -256 0 -473 52 -701 166 -59 30 -113
54 -120 54 -7 -1 -53 -23 -103 -51z"/>
<path d="M2843 1845 c-55 -28 -72 -52 -29 -41 16 4 30 0 40 -10 14 -13 16 -66
16 -429 l0 -415 24 -15 c26 -17 88 -22 125 -10 12 4 26 18 32 32 5 13 9 118 9
233 l0 208 30 32 c90 97 145 -54 121 -333 -13 -147 -33 -206 -80 -235 -59 -36
11 -45 83 -11 142 66 210 242 186 478 -16 146 -46 198 -131 221 -55 15 -113
-5 -165 -55 l-42 -40 -4 182 c-3 173 -4 184 -25 205 -36 35 -124 37 -190 3z"/>
<path d="M5443 1845 c-53 -24 -74 -53 -31 -42 48 13 48 11 48 -423 0 -397 1
-408 21 -434 18 -23 28 -26 78 -26 92 0 91 -2 91 250 0 212 0 213 25 246 31
41 59 50 89 30 34 -22 46 -85 46 -244 0 -209 -24 -308 -81 -338 -73 -37 7 -47
86 -10 115 53 174 168 183 354 7 179 -29 304 -95 330 -84 32 -134 21 -204 -45
l-49 -46 0 181 c0 99 -3 188 -6 197 -19 48 -120 58 -201 20z"/>
<path d="M1217 1815 c-129 -26 -232 -90 -263 -162 -18 -42 -18 -117 1 -152 16
-32 69 -61 112 -61 74 0 126 78 89 135 -19 29 -34 31 -62 10 -10 -8 -31 -15
-46 -15 -21 0 -29 6 -34 25 -19 77 55 144 199 179 l27 6 0 -190 0 -190 -45 0
c-43 0 -45 -1 -45 -30 0 -29 2 -30 45 -30 l45 0 0 -162 c0 -232 11 -260 105
-260 53 0 83 15 95 48 6 14 10 104 10 199 l0 174 118 3 117 3 0 25 0 25 -117
3 -118 3 0 192 0 192 94 -6 c62 -5 111 -15 145 -30 59 -25 71 -19 71 33 0 23
-6 29 -37 37 -55 16 -423 12 -506 -4z"/>
<path d="M3574 1770 c-29 -12 -54 -49 -54 -80 0 -58 88 -97 148 -66 107 55 19
192 -94 146z"/>
<path d="M1922 1545 c-91 -25 -132 -67 -132 -135 0 -38 39 -80 75 -80 30 0 65
32 65 60 0 19 -7 27 -45 55 -20 15 -20 15 4 35 16 14 38 20 73 20 65 0 98 -30
98 -89 0 -57 -36 -91 -139 -131 -135 -53 -193 -129 -176 -229 24 -141 183
-180 297 -73 l27 25 10 -26 c30 -77 149 -79 220 -3 28 29 23 43 -8 26 -12 -6
-26 -8 -31 -5 -6 4 -10 88 -10 211 0 184 -2 209 -20 244 -25 50 -69 80 -139
96 -70 17 -102 17 -169 -1z m136 -381 c2 -88 0 -104 -17 -126 -61 -77 -133 -8
-117 110 11 78 51 124 106 119 25 -2 25 -3 28 -103z"/>
<path d="M2498 1551 c-77 -25 -128 -83 -128 -147 0 -44 34 -103 111 -189 68
-77 99 -127 99 -160 0 -9 -11 -27 -25 -40 -34 -35 -108 -35 -155 0 -39 29 -50
31 -50 11 0 -19 56 -65 108 -88 54 -24 144 -25 201 -2 98 39 135 148 83 249
-8 17 -57 73 -109 127 -81 84 -93 100 -93 131 0 19 7 40 16 48 21 17 78 17 98
-1 15 -12 15 -15 -4 -35 -35 -37 -20 -75 31 -75 31 0 59 31 59 66 0 27 -34 70
-71 89 -35 19 -134 28 -171 16z"/>
<path d="M3563 1550 c-69 -16 -140 -77 -75 -64 49 10 52 -8 52 -284 0 -290 -2
-282 93 -282 49 0 58 3 77 27 21 26 21 35 18 288 -3 289 -5 298 -68 315 -39
11 -52 11 -97 0z"/>
<path d="M4063 1550 c-87 -18 -144 -63 -185 -148 -31 -62 -33 -74 -33 -167 0
-110 20 -172 73 -229 55 -58 101 -79 182 -84 96 -6 163 20 219 84 107 122 106
367 -2 472 -61 59 -168 90 -254 72z m110 -91 c26 -36 36 -94 37 -215 0 -182
-26 -259 -90 -259 -63 0 -90 76 -90 256 0 171 31 253 93 247 18 -2 37 -13 50
-29z"/>
<path d="M4535 1547 c-46 -15 -98 -47 -90 -55 3 -3 20 -6 38 -6 l32 -1 5 -267
c3 -179 9 -271 16 -278 32 -32 136 -28 161 6 10 13 13 71 13 227 0 177 3 213
17 237 21 36 54 54 83 45 37 -12 53 -68 58 -206 7 -214 -24 -360 -83 -387 -63
-29 5 -45 72 -17 86 36 147 109 180 214 25 81 25 294 -1 374 -46 139 -171 164
-282 55 l-42 -40 -6 30 c-15 64 -91 95 -171 69z"/>
<path d="M6313 1550 c-97 -20 -166 -83 -202 -184 -30 -86 -27 -203 9 -284 27
-62 105 -137 158 -152 109 -30 228 2 294 79 104 122 102 366 -5 469 -61 59
-168 90 -254 72z m110 -91 c26 -36 36 -94 37 -215 0 -182 -26 -259 -90 -259
-63 0 -90 76 -90 256 0 171 31 253 93 247 18 -2 37 -13 50 -29z"/>
<path d="M6785 1541 c-42 -19 -93 -67 -83 -77 4 -3 16 0 28 6 12 7 26 8 30 3
5 -4 10 -112 12 -238 3 -200 5 -235 21 -258 56 -86 170 -78 277 20 l40 35 0
-30 c0 -63 63 -97 147 -80 47 10 120 69 108 88 -5 9 -10 9 -18 1 -6 -6 -19
-11 -29 -11 -16 0 -17 20 -20 249 -3 246 -3 250 -26 274 -49 52 -138 43 -204
-21 -39 -37 -42 -63 -6 -37 43 29 48 8 48 -195 l0 -188 -35 -31 c-20 -17 -40
-31 -45 -31 -4 0 -15 -3 -23 -6 -8 -3 -22 2 -31 11 -14 14 -16 46 -16 235 0
121 -4 230 -10 245 -10 27 -62 55 -102 55 -13 0 -41 -9 -63 -19z"/>
<path d="M7475 1547 c-46 -16 -98 -47 -90 -55 3 -3 20 -6 38 -6 l32 -1 5 -268
c5 -251 6 -270 24 -283 31 -22 107 -21 144 2 22 14 22 17 22 228 l0 214 48 31
c58 37 103 40 132 9 24 -26 30 -21 37 31 8 58 -2 87 -36 101 -40 16 -89 -8
-140 -67 l-38 -45 -7 34 c-13 70 -86 102 -171 75z"/>
<path d="M8038 1551 c-75 -24 -128 -87 -128 -149 0 -35 49 -119 109 -187 113
-128 123 -154 76 -200 -35 -35 -111 -35 -153 0 -33 28 -52 32 -52 11 0 -19 56
-65 108 -88 78 -35 200 -20 255 30 50 45 65 147 32 212 -10 19 -60 78 -112
132 -81 84 -93 100 -93 131 0 19 7 40 16 48 21 17 78 17 98 -1 15 -12 15 -15
-4 -35 -35 -37 -20 -75 30 -75 83 0 75 111 -11 155 -35 19 -134 28 -171 16z"/>
</g>
</svg>
